<svg width="128" height="128" viewBox="0 0 128 128" fill="none" xmlns="http://www.w3.org/2000/svg">
<rect width="128" height="128" fill="#333333"/>
<path d="M22.7152 69.8814C24.6108 69.5045 26.4542 70.7305 26.8323 72.6199C30.4914 90.9022 45.5912 100.543 56.0944 105.116C57.828 105.871 58.8289 106.298 59.9434 106.582C61.0078 106.854 62.3066 107.023 64.5 107.023C66.6934 107.023 67.9922 106.854 69.0566 106.582C70.171 106.298 71.1721 105.871 72.9056 105.116C75.477 103.997 78.3699 102.552 81.3189 100.725C82.9605 99.7077 85.1187 100.21 86.1392 101.846C87.1597 103.482 86.6561 105.633 85.0145 106.65C81.7326 108.683 78.5327 110.28 75.7077 111.51L75.7075 111.51C74.0745 112.221 72.5506 112.893 70.7926 113.341C68.9845 113.803 67.0633 114 64.5 114C61.9367 114 60.0155 113.803 58.2074 113.341C56.4494 112.893 54.9254 112.221 53.2923 111.51L53.2922 111.51C42.122 106.646 24.3111 95.6874 19.9676 73.9847C19.5894 72.0954 20.8196 70.2583 22.7152 69.8814ZM103 63.96V56.6358C103 49.1551 102.999 43.6935 102.785 39.781C102.678 37.8279 102.524 36.3799 102.32 35.3258C102.219 34.805 102.116 34.4309 102.023 34.1699C101.928 33.9058 101.866 33.8179 101.873 33.8291C101.886 33.8473 101.831 33.7649 101.62 33.594C101.412 33.4252 101.1 33.2088 100.647 32.9466C99.7293 32.4155 98.4221 31.8035 96.618 31.073C93.0036 29.6095 87.8558 27.8518 80.797 25.4436L78.1239 24.5316C70.5892 21.9611 67.5695 20.9767 64.5 20.9767C61.4305 20.9767 58.4107 21.9611 50.8761 24.5316L48.203 25.4435C41.1442 27.8517 35.9964 29.6095 32.382 31.073C30.578 31.8034 29.2709 32.4155 28.3533 32.9466C27.9004 33.2088 27.5882 33.4251 27.3798 33.594C27.2216 33.7222 27.1511 33.8006 27.1311 33.8242L27.1266 33.8292C27.1347 33.8176 27.0719 33.9055 26.9774 34.17C26.8841 34.431 26.7807 34.8051 26.68 35.3258C26.4762 36.3799 26.3218 37.8279 26.2151 39.781C26.0013 43.6935 26 49.1551 26 56.6358C26 58.5624 24.433 60.1242 22.5 60.1242C20.567 60.1242 19 58.5624 19 56.6358C19 49.2438 18.9988 43.5509 19.2254 39.4017C19.339 37.3239 19.5148 35.5142 19.8065 34.0057C20.0871 32.5546 20.5335 31.0473 21.397 29.8211L21.4801 29.7057C22.3509 28.523 23.5963 27.6322 24.8379 26.9135C26.1697 26.1426 27.8237 25.3882 29.7475 24.6093C33.5889 23.0539 38.9641 21.2214 45.9361 18.8428L48.6092 17.9308C55.7025 15.5108 59.9964 14 64.5 14C69.0035 14 73.2974 15.5109 80.3908 17.9308L83.0639 18.8428C90.0359 21.2214 95.4112 23.0539 99.2527 24.6093C101.176 25.3882 102.83 26.1426 104.162 26.9135C105.444 27.6553 106.73 28.5806 107.603 29.8211C108.467 31.0473 108.913 32.5546 109.194 34.0057C109.485 35.5142 109.661 37.3239 109.775 39.4017C110.001 43.5509 110 49.2438 110 56.6358V63.96C110 76.458 105.789 86.1934 99.9154 93.6203C98.7187 95.1333 96.5181 95.3931 95 94.2005C93.482 93.0079 93.2213 90.8144 94.4179 89.3014C99.4007 83.0009 103 74.7633 103 63.96ZM62.4587 63.7245C63.6978 62.8374 65.375 62.8518 66.6 63.7675L75.9334 70.7442C77.4797 71.9002 77.7932 74.0867 76.6334 75.6279C75.4736 77.1692 73.2798 77.4815 71.7334 76.3256L64.5 70.9185L57.2666 76.3256C55.7202 77.4815 53.5264 77.1692 52.3666 75.6279C51.2068 74.0867 51.5203 71.9002 53.0666 70.7442L62.4 63.7675L62.4587 63.7245ZM59.6001 47.2556C62.4586 45.1191 66.3716 45.0858 69.263 47.1556L69.3999 47.2556L69.4 47.2558L85.2666 59.1162C86.813 60.2722 87.1264 62.4587 85.9666 63.9999C84.8068 65.5412 82.613 65.8535 81.0666 64.6976L65.2001 52.8373C64.7851 52.5271 64.2149 52.5271 63.7999 52.8373L47.9334 64.6976C46.387 65.8535 44.1932 65.5412 43.0334 63.9999C41.8736 62.4587 42.187 60.2722 43.7334 59.1162L59.6 47.2558L59.6001 47.2556Z" fill="white"/>
</svg>
